<?xml version="1.0" encoding="iso-8859-1"?>
<!-- Generator: Adobe Illustrator 19.0.0, SVG Export Plug-In . SVG Version: 6.00 Build 0)  -->
<svg xmlns="http://www.w3.org/2000/svg" xmlns:xlink="http://www.w3.org/1999/xlink" version="1.1" id="Layer_1" x="0px" y="0px" viewBox="0 0 512 512" style="enable-background:new 0 0 512 512;" xml:space="preserve" width="512px" height="512px">
<g>
	<g>
		<path d="M506.157,103.39l-45.536-38.872c-3.016-2.574-6.852-3.988-10.816-3.988H304.868V19.436    c0-9.201-7.459-16.659-16.659-16.659h-77.744c-9.2,0-16.659,7.459-16.659,16.659v41.093H97.735c-9.2,0-16.659,7.459-16.659,16.659    v77.744c0,9.2,7.459,16.659,16.659,16.659h96.069v45.536H62.195c-3.965,0-7.8,1.414-10.816,3.988L5.843,259.988    C2.136,263.154,0,267.784,0,272.659s2.136,9.506,5.843,12.671l45.536,38.872c3.015,2.574,6.85,3.988,10.816,3.988h131.609v164.373    c0,9.2,7.459,16.659,16.659,16.659h77.744c9.2,0,16.659-7.459,16.659-16.659V328.191h123.835c9.2,0,16.659-7.459,16.659-16.659    v-77.744c0-9.2-7.459-16.659-16.659-16.659H304.868v-45.536h144.937c3.965,0,7.8-1.414,10.816-3.988l45.536-38.872    c3.707-3.165,5.843-7.795,5.843-12.671S509.864,106.555,506.157,103.39z M227.124,36.095h44.425v24.434h-44.425V36.095z     M271.549,475.905h-44.425V328.191h44.425V475.905z M412.043,250.447v44.425c-8.743,0-334.499,0-343.704,0l-26.021-22.213    l26.021-22.213C76.643,250.447,403.332,250.447,412.043,250.447z M227.124,217.128v-45.536h44.425v45.536H227.124z     M443.661,138.273c-6.963,0-322.189,0-329.266,0V93.848c7.089,0,322.307,0,329.266,0l26.021,22.213L443.661,138.273z" fill="#4192ad"/>
	</g>
</g>
<g>
</g>
<g>
</g>
<g>
</g>
<g>
</g>
<g>
</g>
<g>
</g>
<g>
</g>
<g>
</g>
<g>
</g>
<g>
</g>
<g>
</g>
<g>
</g>
<g>
</g>
<g>
</g>
<g>
</g>
</svg>
